<svg width="20" height="20" viewBox="0 0 20 20" fill="none" xmlns="http://www.w3.org/2000/svg" aria-hidden="true" focusable="false"><path fill-rule="evenodd" clip-rule="evenodd" d="M12.9147 13.6965L8.51471 2.6765C8.47355 2.54901 8.4072 2.43109 8.31959 2.32974C8.23199 2.22839 8.1249 2.14567 8.00471 2.0865C7.88435 2.02954 7.75286 2 7.61971 2C7.48656 2 7.35506 2.02954 7.23471 2.0865L0.624709 4.8865C0.498076 4.94016 0.383873 5.01937 0.289239 5.11916C0.194604 5.21896 0.121572 5.3372 0.0747086 5.4665C-0.0249029 5.73421 -0.0249029 6.0288 0.0747086 6.2965L4.47471 17.2965C4.57735 17.5586 4.77828 17.7703 5.03471 17.8865C5.15697 17.943 5.29004 17.9722 5.42471 17.9722C5.55938 17.9722 5.69245 17.943 5.81471 17.8865L12.3747 15.0765C12.4995 15.0217 12.6118 14.942 12.7046 14.8423C12.7975 14.7425 12.869 14.6249 12.9147 14.4965C13.0123 14.2388 13.0123 13.9542 12.9147 13.6965ZM9.07471 10.6165C8.9365 10.8664 8.73956 11.0789 8.50088 11.2357C8.2622 11.3925 7.98895 11.4889 7.70471 11.5165L8.56471 12.2365L6.77471 12.9965L6.89471 11.8565C6.68306 12.045 6.42765 12.1776 6.15171 12.2422C5.87576 12.3068 5.58804 12.3014 5.31471 12.2265C3.31471 11.4565 4.60471 8.8565 5.60471 7.4465C7.28471 7.7165 9.85471 8.9165 9.07471 10.6165Z" fill="#8C9099"></path><path fill-rule="evenodd" clip-rule="evenodd" d="M12.6446 7.76639L11.0046 3.59639C11.0746 3.44853 11.1732 3.31599 11.2946 3.20639C11.4957 3.04812 11.7498 2.97297 12.0046 2.99639L19.1046 4.07639C19.2408 4.09587 19.3714 4.14323 19.4884 4.2155C19.6054 4.28776 19.7063 4.38339 19.7846 4.49639C19.956 4.72558 20.0314 5.01256 19.9946 5.29639C19.7046 7.88639 18.9946 14.4664 18.6546 17.0564C18.6253 17.3335 18.4889 17.5882 18.2746 17.7664C18.1718 17.8524 18.0513 17.9148 17.9218 17.9494C17.7922 17.9839 17.6567 17.9897 17.5246 17.9664L11.3346 16.9964L13.9046 15.8964C14.3637 15.6873 14.7226 15.3068 14.9046 14.8364C15.09 14.3501 15.09 13.8127 14.9046 13.3264L14.5646 12.4664C15.469 12.0622 16.2591 11.4403 16.8646 10.6564C17.1607 10.2861 17.3443 9.8388 17.394 9.36737C17.4436 8.89594 17.3571 8.42016 17.1446 7.99639C16.8948 7.7028 16.5506 7.5053 16.1711 7.43779C15.7916 7.37028 15.4004 7.43696 15.0646 7.62639C14.8017 7.35525 14.4538 7.18252 14.0789 7.13702C13.7039 7.09152 13.3248 7.17601 13.0046 7.37639C12.8579 7.47888 12.7351 7.61193 12.6446 7.76639Z" fill="#414952"></path></svg>